<svg width="18" height="18" viewBox="0 0 18 18" fill="none" xmlns="http://www.w3.org/2000/svg">
<path d="M4.1045 17.6402C3.85667 17.6402 3.60987 17.572 3.39007 17.436C2.98614 17.1864 2.74518 16.754 2.74518 16.2791V14.286C1.32292 12.4841 0.708268 10.2339 1.01306 7.92471C1.50173 4.21992 4.54671 1.18337 8.25281 0.704955C10.8632 0.367719 13.4257 1.22333 15.2858 3.05107C17.1462 4.87882 18.0463 7.42399 17.7559 10.0343C17.3351 13.8146 14.2824 16.9246 10.4978 17.4295C8.98904 17.6296 7.46311 17.4207 6.06317 16.8211L4.71358 17.4954C4.52024 17.5919 4.31185 17.6402 4.1045 17.6402Z" fill="#3C3E40"/>
</svg>
