<svg width="18" height="18" viewBox="0 0 18 18" fill="none" xmlns="http://www.w3.org/2000/svg">
<path d="M4.10426 17.6402C3.85643 17.6402 3.60963 17.572 3.38982 17.436C2.98589 17.1864 2.74494 16.754 2.74494 16.2791V14.286C1.32268 12.4841 0.708023 10.2339 1.01282 7.92471C1.50148 4.21992 4.54647 1.18337 8.25256 0.704955C10.863 0.367719 13.4254 1.22333 15.2856 3.05107C17.1459 4.87882 18.046 7.42399 17.7556 10.0343C17.3348 13.8146 14.2822 16.9246 10.4976 17.4295C8.9888 17.6296 7.46287 17.4207 6.06293 16.8211L4.71333 17.4954C4.52 17.5919 4.31161 17.6402 4.10426 17.6402Z" fill="#6425FE"/>
</svg>
