<svg width="20" height="5" viewBox="0 0 20 5" fill="none" xmlns="http://www.w3.org/2000/svg">
<path fill-rule="evenodd" clip-rule="evenodd" d="M12.5036 2.20368C12.5036 3.3778 11.5518 4.32961 10.3777 4.32961C9.20361 4.32961 8.2518 3.3778 8.2518 2.20368C8.2518 1.02957 9.20361 0.0777588 10.3777 0.0777588C11.5518 0.0777588 12.5036 1.02957 12.5036 2.20368ZM5.06288 2.20369C5.06288 3.3778 4.11107 4.32961 2.93696 4.32961C1.76284 4.32961 0.811035 3.3778 0.811035 2.20369C0.811035 1.02957 1.76284 0.0777653 2.93696 0.0777653C4.11107 0.0777653 5.06288 1.02957 5.06288 2.20369ZM17.8182 4.32961C18.9924 4.32961 19.9442 3.3778 19.9442 2.20368C19.9442 1.02957 18.9924 0.0777588 17.8182 0.0777588C16.6441 0.0777588 15.6923 1.02957 15.6923 2.20368C15.6923 3.3778 16.6441 4.32961 17.8182 4.32961Z" fill="#3C3E40"/>
</svg>
