<svg width="16" height="15" viewBox="0 0 16 15" fill="none" xmlns="http://www.w3.org/2000/svg">
<path d="M9.55576 5.36586V2.67703C9.55576 2.14218 9.3433 1.62925 8.96511 1.25106C8.58692 0.872866 8.07398 0.6604 7.53914 0.6604L4.8503 6.71028V14.1046H12.4328C12.757 14.1082 13.0717 13.9946 13.3187 13.7846C13.5658 13.5746 13.7286 13.2824 13.7772 12.9618L14.7049 6.91194C14.7341 6.71926 14.7211 6.52252 14.6668 6.33536C14.6125 6.14819 14.5181 5.97508 14.3902 5.82801C14.2623 5.68095 14.104 5.56344 13.9262 5.48364C13.7484 5.40384 13.5553 5.36365 13.3605 5.36586H9.55576ZM4.8503 14.1046H2.83368C2.47711 14.1046 2.13516 13.9629 1.88303 13.7108C1.6309 13.4587 1.48926 13.1167 1.48926 12.7602V8.0547C1.48926 7.69813 1.6309 7.35618 1.88303 7.10405C2.13516 6.85192 2.47711 6.71028 2.83368 6.71028H4.8503" fill="#5D5FEF"/>
<path d="M4.8503 14.1046H2.83368C2.47711 14.1046 2.13516 13.9629 1.88303 13.7108C1.6309 13.4587 1.48926 13.1167 1.48926 12.7602V8.0547C1.48926 7.69813 1.6309 7.35618 1.88303 7.10405C2.13516 6.85192 2.47711 6.71028 2.83368 6.71028H4.8503M9.55576 5.36586V2.67703C9.55576 2.14218 9.3433 1.62925 8.96511 1.25106C8.58692 0.872866 8.07398 0.6604 7.53914 0.6604L4.8503 6.71028V14.1046H12.4328C12.757 14.1082 13.0717 13.9946 13.3187 13.7846C13.5658 13.5746 13.7286 13.2824 13.7772 12.9618L14.7049 6.91194C14.7341 6.71926 14.7211 6.52252 14.6668 6.33536C14.6125 6.14819 14.5181 5.97508 14.3902 5.82801C14.2623 5.68095 14.104 5.56344 13.9262 5.48364C13.7484 5.40384 13.5553 5.36365 13.3605 5.36586H9.55576Z" stroke="white" stroke-linecap="round" stroke-linejoin="round"/>
</svg>
