<svg width="16" height="16" viewBox="0 0 16 16" fill="none" xmlns="http://www.w3.org/2000/svg">
<path d="M4.8503 14.9425H2.83368C2.47711 14.9425 2.13516 14.8008 1.88303 14.5487C1.6309 14.2966 1.48926 13.9546 1.48926 13.598V8.89259C1.48926 8.53603 1.6309 8.19407 1.88303 7.94194C2.13516 7.68981 2.47711 7.54817 2.83368 7.54817H4.8503M9.55576 6.20375V3.51492C9.55576 2.98007 9.3433 2.46714 8.96511 2.08895C8.58692 1.71076 8.07398 1.49829 7.53914 1.49829L4.8503 7.54817V14.9425H12.4328C12.757 14.9461 13.0717 14.8325 13.3187 14.6225C13.5658 14.4125 13.7286 14.1203 13.7772 13.7997L14.7049 7.74983C14.7341 7.55715 14.7211 7.36041 14.6668 7.17325C14.6125 6.98608 14.5181 6.81297 14.3902 6.66591C14.2623 6.51884 14.104 6.40134 13.9262 6.32153C13.7484 6.24173 13.5553 6.20155 13.3605 6.20375H9.55576Z" stroke="#6B6B6B" stroke-width="1.34442" stroke-linecap="round" stroke-linejoin="round"/>
</svg>
