<svg width="22" height="22" viewBox="0 0 24 25" fill="#2C2C2C" xmlns="http://www.w3.org/2000/svg">
<path d="M15.6888 18.2543C10.5721 22.0646 4.46185 20.0441 1.80873 16.2994C-0.984169 12.3586 -0.508523 7.01739 2.99926 3.6451C6.41228 0.362861 11.833 0.112401 15.5865 3.01285C19.3683 5.93488 20.8252 11.8652 17.3212 16.5827C17.431 16.6999 17.5417 16.8247 17.6599 16.9438C19.6263 18.9119 21.5973 20.8752 23.56 22.847C24.3105 23.6012 24.0666 24.7034 23.104 24.9576C22.573 25.0974 22.1724 24.8647 21.8075 24.4989C19.9218 22.605 18.0276 20.7195 16.1429 18.8246C15.9674 18.6501 15.8314 18.4363 15.6888 18.2543ZM2.39508 10.6364C2.38758 14.6353 5.61109 17.8744 9.62079 17.8978C13.6502 17.9213 16.9018 14.6916 16.9093 10.6598C16.9169 6.64686 13.7046 3.41621 9.69115 3.39933C5.66457 3.38244 2.40259 6.61684 2.39508 10.6364Z" fill="#2C2C2C"/>
</svg>
