<svg width="12" height="12" viewBox="0 0 12 12" fill="none" xmlns="http://www.w3.org/2000/svg">
<path d="M6.02006 7.53808C7.29868 8.82077 8.52652 10.0567 9.75843 11.2876C10.0773 11.6065 10.4825 11.834 10.8959 11.6055C11.2036 11.4359 11.5002 11.118 11.6352 10.7961C11.816 10.3665 11.5296 9.99377 11.2148 9.68097C10.1352 8.60749 9.06174 7.52691 7.98217 6.45344C7.85116 6.32243 7.69171 6.21985 7.50078 6.06853C7.68359 5.87049 7.80038 5.73542 7.92631 5.60949C9.03838 4.49437 10.1555 3.38535 11.2625 2.26821C11.7134 1.81323 11.7957 1.35621 11.5469 0.893107C11.1792 0.21165 10.3617 0.124309 9.74827 0.727567C8.63824 1.81831 7.54242 2.92428 6.44559 4.02923C6.3156 4.16025 6.22216 4.3268 6.081 4.51773C5.86163 4.31258 5.72757 4.19274 5.60062 4.0658C4.48653 2.95373 3.38157 1.83354 2.25935 0.731629C1.5657 0.0501712 0.556211 0.290865 0.350048 1.17138C0.24138 1.6355 0.452621 1.98791 0.768469 2.30274C1.85921 3.38942 2.9469 4.47914 4.03459 5.56886C4.16459 5.69886 4.28849 5.83393 4.44387 5.99541C4.30372 6.14571 4.1849 6.28282 4.05693 6.41078C2.94588 7.52488 1.8328 8.63695 0.720736 9.75104C0.402858 10.0699 0.167242 10.4701 0.390671 10.8865C0.556211 11.1962 0.872058 11.4958 1.19197 11.635C1.61953 11.8198 1.99733 11.5425 2.31114 11.2267C3.3968 10.1349 4.48653 9.04724 5.57625 7.95955C5.70624 7.82854 5.84132 7.70667 6.02006 7.53808Z" fill="white"/>
</svg>
